<svg xmlns="http://www.w3.org/2000/svg" viewBox="6 6 60 60">
  <rect x="6" y="6" width="60" height="60" rx="8" fill="#eff1f5"/>
  <g stroke="#bcc0cc" stroke-width="1.5" stroke-linecap="round">
    <line x1="36" y1="36" x2="36" y2="17"/>
    <line x1="36" y1="36" x2="18" y2="27"/>
    <line x1="36" y1="36" x2="54" y2="27"/>
    <line x1="36" y1="36" x2="18" y2="45"/>
    <line x1="36" y1="36" x2="54" y2="45"/>
  </g>
  <g stroke="#ccd0da" stroke-width="1" stroke-linecap="round">
    <line x1="18" y1="27" x2="36" y2="17"/>
    <line x1="54" y1="27" x2="36" y2="17"/>
    <line x1="18" y1="27" x2="18" y2="45"/>
    <line x1="54" y1="27" x2="54" y2="45"/>
  </g>
  <circle cx="36" cy="36" r="10" fill="#8839ef" fill-opacity="0.10"/>
  <circle cx="36" cy="17" r="3.5" fill="#1e66f5"/>
  <circle cx="18" cy="27" r="3" fill="#209fb5"/>
  <circle cx="54" cy="27" r="3" fill="#209fb5"/>
  <circle cx="18" cy="45" r="3" fill="#1e66f5"/>
  <circle cx="54" cy="45" r="3" fill="#1e66f5"/>
  <circle cx="36" cy="36" r="5.5" fill="#8839ef"/>
  <circle cx="34.5" cy="34.5" r="1.8" fill="#ea76cb" fill-opacity="0.5"/>
</svg>
